<svg xmlns="http://www.w3.org/2000/svg" viewBox="0 0 64 64"><path fill="#2a2f63" d="M57.66 40.21V28.52c0-3.2-2.61-5.81-5.82-5.81H46.7v-8c0-.79-.64-1.43-1.43-1.43h-1.58V12.1a4.206 4.206 0 0 0 2.79-3.95c0-1.78-2.12-5.14-3.03-6.5-.53-.8-1.85-.8-2.39 0-.91 1.36-3.02 4.72-3.02 6.5 0 1.81 1.17 3.36 2.78 3.95v1.18h-1.58c-.79 0-1.43.64-1.43 1.43v8h-1.37v-8c0-.79-.65-1.43-1.43-1.43h-1.59V12.1a4.206 4.206 0 0 0 2.79-3.95c0-1.78-2.12-5.14-3.03-6.5-.27-.4-.72-.64-1.19-.64-.48 0-.93.24-1.18.64-.91 1.35-3.02 4.72-3.02 6.49 0 1.81 1.17 3.36 2.78 3.95v1.18h-1.58c-.79 0-1.43.64-1.43 1.43v8h-1.38v-8c0-.79-.64-1.43-1.43-1.43h-1.58v-1.18a4.21 4.21 0 0 0 2.78-3.95c0-1.78-2.11-5.14-3.02-6.5-.53-.8-1.85-.8-2.39 0-.91 1.36-3.02 4.72-3.02 6.5 0 1.81 1.17 3.36 2.78 3.95v1.18h-1.58c-.79 0-1.43.64-1.43 1.43v8h-5.15c-3.21 0-5.82 2.61-5.82 5.81V40.2C2.77 40.68 0 43.73 0 47.42v14.14c0 .79.64 1.43 1.43 1.43h61.13c.79 0 1.43-.64 1.43-1.43V47.42c.01-3.69-2.76-6.75-6.33-7.21zM42.26 5.16c.77 1.36 1.34 2.56 1.36 2.98-.01.75-.62 1.35-1.36 1.35-.75 0-1.35-.6-1.35-1.35.01-.42.58-1.62 1.35-2.98zm-1.58 10.98h3.15v6.57h-3.15v-6.57zM32 5.16c.78 1.36 1.34 2.56 1.36 2.98A1.36 1.36 0 0 1 32 9.49c-.75 0-1.35-.6-1.35-1.35.01-.42.58-1.62 1.35-2.98zm-1.58 10.98h3.16v6.57h-3.16v-6.57zM21.74 5.16c.77 1.36 1.34 2.56 1.35 2.98 0 .75-.6 1.35-1.35 1.35-.75 0-1.35-.6-1.35-1.35.01-.42.58-1.62 1.35-2.98zm-1.58 10.98h3.15v6.57h-3.15v-6.57zM9.2 28.52c0-1.62 1.33-2.94 2.95-2.94h39.69c1.62 0 2.95 1.32 2.95 2.94v5.66c-1.11-.19-1.82-.62-2.67-1.14-1.3-.77-2.76-1.66-5.59-1.66-2.82 0-4.29.89-5.59 1.66-1.17.71-2.08 1.26-4.11 1.26-2.03 0-2.94-.55-4.11-1.25-1.29-.78-2.76-1.67-5.59-1.67-2.82 0-4.28.89-5.58 1.67-1.16.7-2.07 1.25-4.1 1.25s-2.94-.55-4.11-1.25c-1.05-.64-2.24-1.34-4.16-1.58v-2.95zm0 5.84c1.11.2 1.83.63 2.67 1.14 1.3.78 2.77 1.67 5.59 1.67s4.29-.89 5.58-1.67c1.17-.7 2.08-1.25 4.1-1.25 2.03 0 2.95.55 4.11 1.25 1.3.78 2.77 1.67 5.59 1.67s4.29-.89 5.59-1.67c1.17-.7 2.08-1.25 4.11-1.25 2.03 0 2.94.55 4.11 1.25 1.06.64 2.24 1.34 4.16 1.58v3.07H9.2v-5.79zm51.93 25.77H2.87v-6.64c1.8.17 2.87.68 4.06 1.24 1.57.75 3.35 1.6 6.73 1.6 3.37 0 5.16-.85 6.72-1.6 1.48-.71 2.77-1.32 5.5-1.32 2.72 0 4 .61 5.49 1.32 1.57.75 3.34 1.6 6.72 1.6s5.16-.85 6.73-1.6c1.48-.71 2.76-1.32 5.5-1.32 2.73 0 4.01.61 5.49 1.32 1.33.64 2.83 1.34 5.3 1.54v3.86zm0-6.74c-1.8-.17-2.88-.68-4.07-1.24-1.57-.75-3.34-1.6-6.72-1.6-3.39 0-5.17.85-6.73 1.6-1.49.71-2.77 1.32-5.5 1.32s-4.01-.61-5.49-1.32c-1.57-.75-3.35-1.6-6.72-1.6-3.38 0-5.17.85-6.73 1.6-1.48.71-2.76 1.32-5.49 1.32s-4.01-.61-5.5-1.32c-1.33-.64-2.82-1.34-5.29-1.54v-3.19c0-2.44 1.98-4.41 4.4-4.41h49.46c2.43 0 4.4 1.98 4.4 4.41v5.97z"/><path fill="#ffdb7c" d="M23.09 8.14c0 .75-.6 1.35-1.35 1.35-.75 0-1.35-.6-1.35-1.35.01-.42.57-1.62 1.35-2.98.77 1.36 1.34 2.56 1.35 2.98zm10.27 0A1.36 1.36 0 0 1 32 9.49c-.75 0-1.35-.6-1.35-1.35.01-.42.57-1.62 1.35-2.98.78 1.36 1.34 2.56 1.36 2.98zm10.26 0c-.01.75-.62 1.35-1.36 1.35-.75 0-1.35-.6-1.35-1.35.01-.42.57-1.62 1.35-2.98.77 1.36 1.34 2.56 1.36 2.98z"/><path fill="#edeced" d="M40.68 16.14h3.15v6.57h-3.15zM30.42 16.14h3.16v6.57h-3.16zM20.16 16.14h3.15v6.57h-3.15z"/><path fill="#edeced" d="M30.42 16.14h3.16v6.57h-3.16zM20.16 16.14h3.15v6.57h-3.15z"/><path fill="#f0d299" d="M61.13 47.42v5.97c-1.8-.17-2.88-.68-4.07-1.24-1.57-.75-3.34-1.6-6.72-1.6-3.39 0-5.17.85-6.73 1.6-1.49.71-2.77 1.32-5.5 1.32s-4.01-.61-5.49-1.32c-1.57-.75-3.35-1.6-6.72-1.6-3.38 0-5.17.85-6.73 1.6-1.48.71-2.76 1.32-5.49 1.32s-4.01-.61-5.5-1.32c-1.33-.64-2.82-1.34-5.29-1.54v-3.19c0-2.44 1.98-4.41 4.4-4.41h49.46c2.41 0 4.38 1.98 4.38 4.41zm-6.34-18.9v5.66c-1.11-.19-1.82-.62-2.67-1.14-1.3-.77-2.76-1.66-5.59-1.66-2.82 0-4.29.89-5.59 1.66-1.17.71-2.08 1.26-4.11 1.26-2.03 0-2.94-.55-4.11-1.25-1.29-.78-2.76-1.67-5.59-1.67-2.82 0-4.28.89-5.58 1.67-1.16.7-2.07 1.25-4.1 1.25s-2.94-.55-4.11-1.25c-1.05-.64-2.24-1.34-4.16-1.58v-2.96c0-1.62 1.33-2.94 2.95-2.94h39.69c1.64.01 2.97 1.32 2.97 2.95z"/><path fill="#dfc189" d="M61.13 47.42v5.97c-.88-.09-1.59-.25-2.23-.47V48.8c0-2.24-1.52-4.05-3.38-4.05H8.47c-1.86 0-3.38 1.81-3.38 4.05v2.16c-.65-.16-1.38-.29-2.23-.35v-3.19c0-2.44 1.98-4.41 4.4-4.41h49.46a4.41 4.41 0 0 1 4.41 4.41zm-6.34-18.9v5.66c-.77-.13-1.35-.38-1.92-.7v-4.06c0-1.29-.9-2.34-2-2.34H13.12c-1.1 0-2 1.05-2 2.34v2.5c-.55-.2-1.18-.35-1.92-.45v-2.96c0-1.62 1.33-2.94 2.95-2.94h39.69c1.62.01 2.95 1.32 2.95 2.95z"/><path fill="#f16e61" d="M54.79 37.08v3.07H9.2v-5.78c1.11.2 1.83.63 2.67 1.14 1.3.78 2.77 1.67 5.59 1.67s4.29-.89 5.58-1.67c1.17-.7 2.08-1.25 4.1-1.25 2.03 0 2.95.55 4.11 1.25 1.3.78 2.77 1.67 5.59 1.67s4.29-.89 5.59-1.67c1.17-.7 2.08-1.25 4.11-1.25 2.03 0 2.94.55 4.11 1.25 1.05.63 2.22 1.33 4.14 1.57zm6.34 19.19v3.86H2.87v-6.64c1.8.17 2.87.68 4.06 1.24 1.57.75 3.35 1.6 6.73 1.6 3.37 0 5.16-.85 6.72-1.6 1.48-.71 2.77-1.32 5.5-1.32 2.72 0 4 .61 5.49 1.32 1.57.75 3.34 1.6 6.72 1.6s5.16-.85 6.73-1.6c1.48-.71 2.76-1.32 5.5-1.32 2.73 0 4.01.61 5.49 1.32 1.35.64 2.85 1.34 5.32 1.54z"/></svg>